<svg width="192" height="192" viewBox="0 0 192 192" fill="none" xmlns="http://www.w3.org/2000/svg">
<g id="Icon  3">
<g id="Border" opacity="0.06">
<rect id="Shape" width="192" height="192" fill="#1565D8"/>
</g>
<path id="dribbble" d="M94.5 45.1875C65.6016 45.1875 42.1875 68.8125 42.1875 97.5C42.1875 126.398 65.6016 149.812 94.5 149.812C123.188 149.812 146.812 126.398 146.812 97.5C146.812 68.8125 123.188 45.1875 94.5 45.1875ZM128.883 69.4453C135.211 77.0391 139.008 86.7422 139.008 97.2891C137.531 96.8672 122.766 93.9141 108 95.8125C106.734 92.8594 105.68 90.3281 103.992 86.9531C120.656 80.2031 128.039 70.7109 128.883 69.4453ZM124.031 64.1719C123.188 65.4375 116.438 74.5078 100.617 80.4141C93.2344 66.9141 85.2188 55.9453 83.9531 54.2578C98.0859 50.8828 113.062 54.4688 124.031 64.1719ZM75.3047 57.2109C76.5703 58.8984 84.5859 69.8672 91.9688 83.1562C71.0859 88.6406 52.7344 88.6406 50.625 88.4297C53.5781 74.7188 62.8594 63.1172 75.3047 57.2109ZM49.7812 97.7109C49.7812 97.2891 49.7812 96.8672 49.7812 96.2344C51.6797 96.4453 73.4062 96.6562 95.5547 89.9062C97.0312 92.4375 98.0859 94.9688 99.3516 97.5C83.1094 102.141 68.3438 115.219 61.1719 127.453C54 119.648 49.7812 109.102 49.7812 97.7109ZM66.8672 132.938C71.7188 123.445 84.375 111 102.305 104.883C108.633 121.125 111.164 134.836 111.797 138.844C97.4531 144.961 80.1562 143.273 66.8672 132.938ZM119.391 134.625C118.969 132.094 116.438 119.016 110.742 102.773C124.664 100.664 136.898 104.25 138.586 104.672C136.477 117.117 129.305 127.875 119.391 134.625Z" fill="#1565D8"/>
</g>
</svg>
