<svg width="192" height="192" viewBox="0 0 192 192" fill="none" xmlns="http://www.w3.org/2000/svg">
<g id="Icon ">
<g id="Border" opacity="0.06">
<rect id="Shape" width="192" height="192" fill="#1565D8"/>
</g>
<path id="instagram" d="M96 73.2422C82.5 73.2422 71.7422 84.2109 71.7422 97.5C71.7422 111 82.5 121.758 96 121.758C109.289 121.758 120.258 111 120.258 97.5C120.258 84.2109 109.289 73.2422 96 73.2422ZM96 113.32C87.3516 113.32 80.1797 106.359 80.1797 97.5C80.1797 88.8516 87.1406 81.8906 96 81.8906C104.648 81.8906 111.609 88.8516 111.609 97.5C111.609 106.359 104.648 113.32 96 113.32ZM126.797 72.3984C126.797 69.2344 124.266 66.7031 121.102 66.7031C117.938 66.7031 115.406 69.2344 115.406 72.3984C115.406 75.5625 117.938 78.0938 121.102 78.0938C124.266 78.0938 126.797 75.5625 126.797 72.3984ZM142.828 78.0938C142.406 70.5 140.719 63.75 135.234 58.2656C129.75 52.7812 123 51.0938 115.406 50.6719C107.602 50.25 84.1875 50.25 76.3828 50.6719C68.7891 51.0938 62.25 52.7812 56.5547 58.2656C51.0703 63.75 49.3828 70.5 48.9609 78.0938C48.5391 85.8984 48.5391 109.312 48.9609 117.117C49.3828 124.711 51.0703 131.25 56.5547 136.945C62.25 142.43 68.7891 144.117 76.3828 144.539C84.1875 144.961 107.602 144.961 115.406 144.539C123 144.117 129.75 142.43 135.234 136.945C140.719 131.25 142.406 124.711 142.828 117.117C143.25 109.312 143.25 85.8984 142.828 78.0938ZM132.703 125.344C131.227 129.562 127.852 132.727 123.844 134.414C117.516 136.945 102.75 136.312 96 136.312C89.0391 136.312 74.2734 136.945 68.1562 134.414C63.9375 132.727 60.7734 129.562 59.0859 125.344C56.5547 119.227 57.1875 104.461 57.1875 97.5C57.1875 90.75 56.5547 75.9844 59.0859 69.6562C60.7734 65.6484 63.9375 62.4844 68.1562 60.7969C74.2734 58.2656 89.0391 58.8984 96 58.8984C102.75 58.8984 117.516 58.2656 123.844 60.7969C127.852 62.2734 131.016 65.6484 132.703 69.6562C135.234 75.9844 134.602 90.75 134.602 97.5C134.602 104.461 135.234 119.227 132.703 125.344Z" fill="#1565D8"/>
</g>
</svg>
