<svg width="192" height="192" viewBox="0 0 192 192" fill="none" xmlns="http://www.w3.org/2000/svg">
<g id="Icon  2">
<g id="Border" opacity="0.06">
<rect id="Shape" width="192" height="192" fill="#1565D8"/>
</g>
<path id="twitter" d="M137.32 75.5625C141.539 72.3984 145.336 68.6016 148.289 64.1719C144.492 65.8594 140.062 67.125 135.633 67.5469C140.273 64.8047 143.648 60.5859 145.336 55.3125C141.117 57.8438 136.266 59.7422 131.414 60.7969C127.195 56.3672 121.5 53.8359 115.172 53.8359C102.938 53.8359 93.0234 63.75 93.0234 75.9844C93.0234 77.6719 93.2344 79.3594 93.6562 81.0469C75.3047 79.9922 58.8516 71.1328 47.8828 57.8438C45.9844 61.0078 44.9297 64.8047 44.9297 69.0234C44.9297 76.6172 48.7266 83.3672 54.8438 87.375C51.2578 87.1641 47.6719 86.3203 44.7188 84.6328V84.8438C44.7188 95.6016 52.3125 104.461 62.4375 106.57C60.75 106.992 58.6406 107.414 56.7422 107.414C55.2656 107.414 54 107.203 52.5234 106.992C55.2656 115.852 63.4922 122.18 73.1953 122.391C65.6016 128.297 56.1094 131.883 45.7734 131.883C43.875 131.883 42.1875 131.672 40.5 131.461C50.2031 137.789 61.8047 141.375 74.4609 141.375C115.172 141.375 137.32 107.836 137.32 78.5156C137.32 77.4609 137.32 76.6172 137.32 75.5625Z" fill="#1565D8"/>
</g>
</svg>
