<svg width="192" height="192" viewBox="0 0 192 192" fill="none" xmlns="http://www.w3.org/2000/svg">
<g id="Icon  4">
<g id="Border" opacity="0.06">
<rect id="Shape" width="192" height="192" fill="#1565D8"/>
</g>
<path id="youtube" d="M151.055 69.8672C149.789 64.8047 145.781 60.7969 140.93 59.5312C131.859 57 96 57 96 57C96 57 59.9297 57 50.8594 59.5312C46.0078 60.7969 42 64.8047 40.7344 69.8672C38.2031 78.7266 38.2031 97.7109 38.2031 97.7109C38.2031 97.7109 38.2031 116.484 40.7344 125.555C42 130.617 46.0078 134.414 50.8594 135.68C59.9297 138 96 138 96 138C96 138 131.859 138 140.93 135.68C145.781 134.414 149.789 130.617 151.055 125.555C153.586 116.484 153.586 97.7109 153.586 97.7109C153.586 97.7109 153.586 78.7266 151.055 69.8672ZM84.1875 114.797V80.625L114.141 97.7109L84.1875 114.797Z" fill="#1565D8"/>
</g>
</svg>
